HIERARCHY
ROOT Hips
{
	OFFSET 0.000000 88.474243 0.000000
	CHANNELS 6 Xposition Yposition Zposition Zrotation Yrotation Xrotation 
	JOINT Hips_Spine
	{
		OFFSET 0.000000 0.000000 0.000000
		CHANNELS 3 Zrotation Yrotation Xrotation
		JOINT Spine
		{
			OFFSET 0.005100 8.711998 -0.691000
			CHANNELS 3 Zrotation Yrotation Xrotation
			JOINT Spine1
			{
				OFFSET -0.009200 8.660301 -1.275000
				CHANNELS 3 Zrotation Yrotation Xrotation
				JOINT Spine2
				{
					OFFSET 0.006300 9.852501 -1.857000
					CHANNELS 3 Zrotation Yrotation Xrotation
					JOINT Spine2_Neck
					{
						OFFSET 0.000000 0.000000 0.000000
						CHANNELS 3 Zrotation Yrotation Xrotation
						JOINT Neck
						{
							OFFSET 0.016300 11.420799 -0.263300
							CHANNELS 3 Zrotation Yrotation Xrotation
							End Site #name: Head
							{
								OFFSET -0.019200 9.262405 2.362500
							}
						}
					}
					JOINT Spine2_LeftShoulder
					{
						OFFSET 0.000000 0.000000 0.000000
						CHANNELS 3 Zrotation Yrotation Xrotation
						JOINT LeftShoulder
						{
							OFFSET 5.616900 6.732201 -0.345700
							CHANNELS 3 Zrotation Yrotation Xrotation
							JOINT LeftArm
							{
								OFFSET 10.664888 -0.183372 -2.440700
								CHANNELS 3 Zrotation Yrotation Xrotation
								JOINT LeftForeArm
								{
									OFFSET 27.459126 0.000000 0.000000
									CHANNELS 3 Zrotation Yrotation Xrotation
									End Site #name: LeftHand
									{
										OFFSET 21.306858 0.000000 0.000000
									}
								}
							}
						}
					}
					JOINT Spine2_RightShoulder
					{
						OFFSET 0.000000 0.000000 0.000000
						CHANNELS 3 Zrotation Yrotation Xrotation
						JOINT RightShoulder
						{
							OFFSET -5.580300 6.737503 -0.344400
							CHANNELS 3 Zrotation Yrotation Xrotation
							JOINT RightArm
							{
								OFFSET -10.679335 -0.188484 -2.383900
								CHANNELS 3 Zrotation Yrotation Xrotation
								JOINT RightForeArm
								{
									OFFSET -27.503529 0.000000 0.000000
									CHANNELS 3 Zrotation Yrotation Xrotation
									End Site #name: RightHand
									{
										OFFSET -21.306808 0.000000 0.000000
									}
								}
							}
						}
					}
				}
			}
		}
	}
	JOINT Hips_LeftUpLeg
	{
		OFFSET 0.000000 0.000000 0.000000
		CHANNELS 3 Zrotation Yrotation Xrotation
		JOINT LeftUpLeg
		{
			OFFSET 6.857700 -6.739601 0.312100
			CHANNELS 3 Zrotation Yrotation Xrotation
			JOINT LeftLeg
			{
				OFFSET -0.367590 -34.731552 -4.572400
				CHANNELS 3 Zrotation Yrotation Xrotation
				End Site #name: LeftFoot
				{
					OFFSET 0.367590 -34.656704 -6.067400
				}
			}
		}
	}
	JOINT Hips_RightUpLeg
	{
		OFFSET 0.000000 0.000000 0.000000
		CHANNELS 3 Zrotation Yrotation Xrotation
		JOINT RightUpLeg
		{
			OFFSET -6.876100 -6.733299 0.301000
			CHANNELS 3 Zrotation Yrotation Xrotation
			JOINT RightLeg
			{
				OFFSET 0.347353 -34.795158 -4.515900
				CHANNELS 3 Zrotation Yrotation Xrotation
				End Site #name: RightFoot
				{
					OFFSET -0.347353 -34.589367 -6.070300
				}
			}
		}
	}
}
MOTION
Frames: 7
Frame Time: 0.041667
-0.281326 -0.114154 -1.154499 -1.461170 -2.302869 -0.992232 0.000000 -0.000000 0.000000 -0.919432 0.790070 5.290080 -1.203005 -0.014656 2.808342 0.000000 0.000000 0.000000 -1.385123 -0.401221 1.712889 3.994789 -3.312749 9.571401 -1.298776 -0.400517 2.871781 -3.576707 6.628689 -0.656236 -71.163596 -4.812628 31.791893 0.117156 -6.546847 0.233486 -1.641350 -0.296735 2.441988 8.627065 -3.423693 0.356806 48.836991 35.430679 -5.966869 179.326936 42.922177 -179.787222 0.000000 -0.000000 -0.000000 1.579768 12.231475 -17.093421 3.003079 2.711842 18.290672 0.000000 -0.000000 0.000000 -0.935642 -10.354751 -12.514518 0.021039 -1.470041 17.628325 
-0.328820 -0.120180 -1.184477 -1.397076 -2.282810 -0.996148 0.000000 -0.000000 0.000000 -0.906062 0.775483 5.237866 -1.175466 -0.024476 2.814078 0.000000 0.000000 0.000000 -1.347778 -0.412758 1.733073 3.944921 -3.276468 9.567477 -1.267822 -0.414968 2.885249 -3.625130 6.573482 -0.650105 -71.295104 -5.050262 31.548785 0.118799 -6.284048 0.231586 -1.604830 -0.315786 2.458041 8.915679 -3.451640 0.348833 49.361936 35.110985 -5.267748 179.337069 43.184770 -179.787057 0.000000 -0.000000 -0.000000 1.580625 12.242513 -17.067778 2.982657 2.665345 18.236792 0.000000 -0.000000 0.000000 -0.933586 -10.354330 -12.494185 0.022246 -1.479108 17.602743 
-0.370260 -0.126230 -1.214687 -1.336650 -2.270112 -1.000103 0.000000 -0.000000 0.000000 -0.892398 0.762581 5.179840 -1.145049 -0.027919 2.814310 0.000000 0.000000 0.000000 -1.307996 -0.418602 1.751242 3.882923 -3.231288 9.562428 -1.233412 -0.424243 2.898217 -3.680829 6.521015 -0.646516 -71.420225 -5.309686 31.301016 0.118760 -6.010971 0.228967 -1.565858 -0.328432 2.471756 9.147208 -3.468008 0.335488 49.902635 34.764156 -4.543101 179.348758 43.453262 -179.786481 0.000000 -0.000000 -0.000000 1.582066 12.250811 -17.039735 2.964976 2.629529 18.180737 0.000000 -0.000000 0.000000 -0.934162 -10.350179 -12.479105 0.023863 -1.486323 17.585268 
-0.405548 -0.132305 -1.245097 -1.280451 -2.259075 -1.005345 0.000000 -0.000000 0.000000 -0.877890 0.748911 5.117553 -1.111181 -0.027237 2.810860 0.000000 0.000000 0.000000 -1.265677 -0.421789 1.768379 3.808867 -3.182072 9.556557 -1.196852 -0.429045 2.907859 -3.729992 6.467256 -0.641489 -71.538596 -5.537044 31.037685 0.119160 -5.750673 0.226616 -1.526523 -0.339448 2.484234 9.385102 -3.474743 0.322664 50.449180 34.398935 -3.799595 179.360847 43.715388 -179.786286 0.000000 -0.000000 -0.000000 1.583418 12.258810 -17.012780 2.949845 2.600133 18.126620 0.000000 -0.000000 0.000000 -0.937208 -10.346247 -12.459450 0.025748 -1.493631 17.560538 
-0.434537 -0.138387 -1.275617 -1.228537 -2.250760 -1.012010 0.000000 -0.000000 0.000000 -0.862912 0.734755 5.052085 -1.075679 -0.026931 2.808278 0.000000 0.000000 0.000000 -1.220942 -0.425617 1.788341 3.725612 -3.128227 9.549010 -1.158679 -0.434269 2.920179 -3.784616 6.403670 -0.636205 -71.662703 -5.762249 30.785900 0.118728 -5.462226 0.223017 -1.486026 -0.348319 2.495559 9.640011 -3.479221 0.308968 51.008154 33.985214 -3.006208 179.376128 44.023471 -179.785166 0.000000 -0.000000 -0.000000 1.583886 12.269113 -16.984405 2.938739 2.577093 18.072537 0.000000 -0.000000 0.000000 -0.939933 -10.341865 -12.440704 0.025758 -1.502094 17.536247 
-0.457466 -0.144363 -1.306236 -1.180756 -2.244250 -1.019735 0.000000 -0.000000 0.000000 -0.846269 0.721824 4.987948 -1.038947 -0.026380 2.805621 0.000000 0.000000 0.000000 -1.174407 -0.428750 1.808437 3.630826 -3.069107 9.536107 -1.118641 -0.434946 2.929477 -3.842836 6.333062 -0.629372 -71.786739 -5.988406 30.493886 0.117527 -5.188963 0.220153 -1.443627 -0.356860 2.506723 9.919002 -3.489730 0.292520 51.623637 33.491473 -2.108623 179.394277 44.393235 -179.781970 0.000000 -0.000000 -0.000000 1.584731 12.279086 -16.955408 2.930223 2.563737 18.021531 0.000000 -0.000000 0.000000 -0.943324 -10.336980 -12.423086 0.027617 -1.506011 17.516121 
-0.474431 -0.150204 -1.336985 -1.137403 -2.240282 -1.028130 0.000000 -0.000000 0.000000 -0.829827 0.707792 4.921170 -0.999901 -0.025606 2.802488 0.000000 0.000000 0.000000 -1.125568 -0.431747 1.829763 3.531491 -3.007072 9.518220 -1.076380 -0.435927 2.940485 -3.903818 6.254940 -0.622433 -71.914591 -6.220166 30.200876 0.116516 -4.905060 0.216379 -1.400758 -0.364050 2.518955 10.219008 -3.516342 0.270239 52.347507 32.869752 -1.038830 179.413227 44.815505 -179.778532 0.000000 -0.000000 -0.000000 1.586430 12.286000 -16.926056 2.925648 2.559713 17.971250 0.000000 -0.000000 0.000000 -0.950984 -10.331486 -12.407221 0.028624 -1.512515 17.499985 
